<svg width="583" height="230" viewBox="0 0 583 230" fill="none" xmlns="http://www.w3.org/2000/svg">
<rect width="583" height="230" fill="#FDFDFD"/>
<path d="M113.303 97.1178C124.7 99.9432 135.485 107.4 139.655 118.353C143.067 127.315 141.525 137.984 135.712 145.619C131.652 150.953 125.866 154.666 120.205 158.267C102.035 169.823 83.8639 181.38 65.6934 192.937C61.4994 195.604 57.1277 198.339 52.1956 198.979C46.175 199.761 39.7361 196.959 36.517 191.824C32.654 185.66 33.9649 177.074 38.7398 171.584C41.3258 168.611 44.7201 166.474 48.0619 164.381C68.6789 151.469 89.2958 138.557 109.913 125.645C114.869 122.541 120.283 118.786 121.316 113.04C122.416 106.917 118.013 101.195 113.303 97.1178Z" fill="#1D1D1D"/>
<path d="M47.5504 76.9406C68.0852 65.9104 88.8036 54.9193 109.356 43.893C110.4 43.333 111.723 42.9861 111.723 42.1991C111.723 41.412 111.246 41.1503 110.609 40.625C106.319 37.0886 101.916 33.528 97.6659 30C115.444 30.0025 133.222 30.0051 151 30.0076C150.361 46.6226 149.474 63.2281 148.339 79.8167C144.309 75.0646 140.279 70.3124 136.249 65.5602C135.85 65.0898 135.395 64.5873 134.784 64.5C134.221 64.4196 133.681 64.7144 133.189 64.9989C108.673 79.1932 84.1556 93.3876 59.6385 107.582C56.1756 109.587 52.6341 111.658 50.0949 114.746C47.0688 118.426 45.7313 123.436 46.5213 128.131C47.3113 132.826 50.2154 137.124 54.2804 139.618C40.8688 135.779 27.8068 126.517 24.6755 112.952C22.7994 104.824 24.8935 95.8795 30.1841 89.4219C34.7301 83.8731 41.2256 80.3379 47.5504 76.9406Z" fill="#1D1D1D"/>
<path d="M215.64 144.46C211.544 144.46 207.64 143.948 203.928 142.924C200.216 141.9 196.888 140.268 193.944 138.028C191.064 135.788 188.792 132.876 187.128 129.292L194.808 121.42C195.96 124.556 197.688 127.084 199.992 129.004C202.296 130.924 204.856 132.332 207.672 133.228C210.552 134.06 213.272 134.476 215.832 134.476C218.008 134.476 219.96 134.22 221.688 133.708C223.416 133.132 224.792 132.268 225.816 131.116C226.904 129.9 227.448 128.3 227.448 126.316C227.448 124.268 226.904 122.636 225.816 121.42C224.728 120.204 223.16 119.244 221.112 118.54C219.128 117.836 216.728 117.164 213.912 116.524L207.768 115.18C205.528 114.668 203.288 114.028 201.048 113.26C198.872 112.428 196.856 111.34 195 109.996C193.144 108.588 191.672 106.828 190.584 104.716C189.496 102.604 188.952 100.012 188.952 96.94C188.952 92.908 189.976 89.516 192.024 86.764C194.136 83.948 196.92 81.836 200.376 80.428C203.832 79.02 207.576 78.316 211.608 78.316C217.496 78.316 222.68 79.5 227.16 81.868C231.704 84.236 235.128 87.628 237.432 92.044L229.272 99.82C227.48 95.852 224.952 92.972 221.688 91.18C218.424 89.324 214.84 88.396 210.936 88.396C208.888 88.396 207.064 88.716 205.464 89.356C203.864 89.996 202.616 90.892 201.72 92.044C200.824 93.196 200.376 94.604 200.376 96.268C200.376 99.02 201.4 101.068 203.448 102.412C205.56 103.692 208.344 104.748 211.8 105.58L219 107.308C221.56 107.948 223.992 108.716 226.296 109.612C228.664 110.508 230.744 111.66 232.536 113.068C234.392 114.476 235.832 116.236 236.856 118.348C237.944 120.46 238.488 123.052 238.488 126.124C238.488 129.964 237.496 133.26 235.512 136.012C233.528 138.764 230.808 140.876 227.352 142.348C223.896 143.756 219.992 144.46 215.64 144.46ZM261.633 144.46C258.625 144.46 256.001 143.884 253.761 142.732C251.585 141.516 249.921 139.788 248.769 137.548C247.617 135.244 247.041 132.492 247.041 129.292V96.748H257.793V126.028C257.793 128.908 258.433 131.244 259.713 133.036C260.993 134.828 263.393 135.724 266.913 135.724C269.537 135.724 271.617 135.212 273.153 134.188C274.689 133.1 275.777 131.596 276.417 129.676C277.121 127.756 277.473 125.516 277.473 122.956L278.049 127.372C277.729 130.252 276.961 133.004 275.745 135.628C274.529 138.188 272.769 140.3 270.465 141.964C268.161 143.628 265.217 144.46 261.633 144.46ZM288.321 143.5H277.473V96.748H288.321V143.5ZM324.218 144.46C320.57 144.46 317.69 143.628 315.578 141.964C313.466 140.3 311.898 138.188 310.874 135.628C309.85 133.004 309.178 130.252 308.858 127.372L309.434 122.956C309.434 125.516 309.786 127.756 310.49 129.676C311.258 131.596 312.41 133.1 313.946 134.188C315.546 135.212 317.626 135.724 320.186 135.724C323.514 135.724 326.298 134.444 328.538 131.884C330.842 129.26 331.994 125.324 331.994 120.076C331.994 114.764 330.842 110.828 328.538 108.268C326.298 105.708 323.514 104.428 320.186 104.428C317.626 104.428 315.546 104.972 313.946 106.06C312.41 107.084 311.258 108.556 310.49 110.476C309.786 112.396 309.434 114.636 309.434 117.196L308.858 112.78C309.178 109.9 309.85 107.148 310.874 104.524C311.962 101.9 313.594 99.788 315.77 98.188C317.946 96.524 320.826 95.692 324.41 95.692C328.25 95.692 331.546 96.684 334.298 98.668C337.05 100.652 339.194 103.468 340.73 107.116C342.266 110.7 343.034 115.02 343.034 120.076C343.034 125.068 342.266 129.388 340.73 133.036C339.194 136.684 337.018 139.5 334.202 141.484C331.386 143.468 328.058 144.46 324.218 144.46ZM309.434 161.356H298.682V96.748H309.434V161.356ZM369.236 144.46C365.908 144.46 362.74 144.012 359.732 143.116C356.724 142.22 354.068 140.94 351.764 139.276C349.524 137.548 347.796 135.468 346.58 133.036L352.82 126.316C353.78 127.852 355.028 129.356 356.564 130.828C358.1 132.3 359.956 133.516 362.132 134.476C364.308 135.372 366.804 135.82 369.62 135.82C371.924 135.82 373.748 135.404 375.092 134.572C376.5 133.676 377.204 132.428 377.204 130.828C377.204 129.1 376.404 127.852 374.804 127.084C373.204 126.316 371.092 125.612 368.468 124.972L362.228 123.532C359.796 122.892 357.492 122.06 355.316 121.036C353.14 120.012 351.38 118.636 350.036 116.908C348.692 115.116 348.02 112.812 348.02 109.996C348.02 105.58 349.62 102.124 352.82 99.628C356.084 97.132 360.404 95.884 365.78 95.884C370.772 95.884 374.964 96.908 378.356 98.956C381.812 101.004 384.244 103.34 385.652 105.964L379.316 112.684C377.716 110.124 375.668 108.14 373.172 106.732C370.74 105.26 368.02 104.524 365.012 104.524C362.9 104.524 361.204 104.94 359.924 105.772C358.708 106.604 358.1 107.788 358.1 109.324C358.1 110.988 358.772 112.268 360.116 113.164C361.524 113.996 363.796 114.796 366.932 115.564L372.596 117.004C377.844 118.348 381.524 120.14 383.636 122.38C385.812 124.556 386.9 127.308 386.9 130.636C386.9 133.708 386.1 136.268 384.5 138.316C382.964 140.364 380.852 141.9 378.164 142.924C375.54 143.948 372.564 144.46 369.236 144.46ZM413.768 144.46C409.096 144.46 405.064 143.468 401.672 141.484C398.28 139.436 395.656 136.588 393.8 132.94C391.944 129.228 391.016 124.972 391.016 120.172C391.016 115.244 391.944 110.988 393.8 107.404C395.656 103.756 398.28 100.908 401.672 98.86C405.064 96.812 409.096 95.788 413.768 95.788C419.592 95.788 424.328 97.26 427.976 100.204C431.688 103.148 434.152 106.828 435.368 111.244L425.672 116.044C425.16 112.716 423.976 110.028 422.12 107.98C420.328 105.868 417.608 104.812 413.96 104.812C411.528 104.812 409.416 105.42 407.624 106.636C405.832 107.788 404.456 109.516 403.496 111.82C402.536 114.06 402.056 116.844 402.056 120.172C402.056 123.436 402.536 126.22 403.496 128.524C404.456 130.764 405.832 132.492 407.624 133.708C409.416 134.86 411.528 135.436 413.96 135.436C417.608 135.436 420.328 134.412 422.12 132.364C423.976 130.252 425.16 127.532 425.672 124.204L435.368 129.004C434.152 133.42 431.688 137.1 427.976 140.044C424.328 142.988 419.592 144.46 413.768 144.46ZM484.454 143.5H477.734C476.134 143.5 474.662 143.212 473.318 142.636C471.974 142.06 470.886 141.132 470.054 139.852C469.222 138.508 468.806 136.716 468.806 134.476V116.62V115.18C468.806 112.236 468.198 109.868 466.982 108.076C465.83 106.22 463.43 105.292 459.782 105.292C456.646 105.292 453.894 106.092 451.526 107.692C449.158 109.292 447.302 111.34 445.958 113.836L439.526 106.156C440.742 104.492 442.342 102.892 444.326 101.356C446.374 99.756 448.774 98.444 451.526 97.42C454.278 96.332 457.382 95.788 460.838 95.788C466.598 95.788 471.046 97.388 474.182 100.588C477.382 103.724 478.982 108.172 478.982 113.932V131.5C478.982 132.524 479.174 133.26 479.558 133.708C480.006 134.092 480.646 134.284 481.478 134.284H484.454V143.5ZM453.158 144.46C449.318 144.46 446.278 143.468 444.038 141.484C441.862 139.5 440.774 136.812 440.774 133.42C440.774 130.092 441.862 127.372 444.038 125.26C446.214 123.084 449.222 121.26 453.062 119.788L470.15 112.588L471.398 119.404L456.902 125.932C454.854 126.828 453.382 127.724 452.486 128.62C451.654 129.516 451.238 130.572 451.238 131.788C451.238 133.132 451.686 134.188 452.582 134.956C453.542 135.724 455.014 136.108 456.998 136.108C458.79 136.108 460.39 135.852 461.798 135.34C463.27 134.828 464.518 134.124 465.542 133.228C466.63 132.268 467.43 131.148 467.942 129.868C468.518 128.588 468.806 127.148 468.806 125.548L469.094 130.06C468.71 132.172 467.91 134.348 466.694 136.588C465.478 138.828 463.75 140.716 461.51 142.252C459.334 143.724 456.55 144.46 453.158 144.46ZM502.468 143.5H491.716V79.18H502.468V143.5ZM533.617 144.46C529.009 144.46 524.945 143.468 521.425 141.484C517.969 139.436 515.281 136.588 513.361 132.94C511.505 129.228 510.577 124.972 510.577 120.172C510.577 115.244 511.505 110.956 513.361 107.308C515.281 103.66 517.905 100.844 521.234 98.86C524.626 96.812 528.498 95.788 532.85 95.788C537.521 95.788 541.49 96.748 544.754 98.668C548.018 100.588 550.482 103.212 552.146 106.54C553.81 109.868 554.642 113.708 554.642 118.06C554.642 118.956 554.61 119.852 554.546 120.748C554.482 121.58 554.385 122.252 554.257 122.764H518.449V115.852H547.153L545.042 118.348C545.042 113.804 543.986 110.348 541.874 107.98C539.762 105.612 536.753 104.428 532.85 104.428C529.137 104.428 526.193 105.644 524.017 108.076C521.841 110.508 520.753 114.124 520.753 118.924V121.036C520.753 124.172 521.265 126.828 522.289 129.004C523.377 131.18 524.913 132.844 526.898 133.996C528.882 135.084 531.154 135.628 533.714 135.628C536.465 135.628 538.705 135.212 540.434 134.38C542.226 133.548 543.666 132.524 544.754 131.308C545.842 130.028 546.674 128.748 547.25 127.468L553.874 134.476C552.146 137.1 549.618 139.436 546.289 141.484C543.025 143.468 538.801 144.46 533.617 144.46Z" fill="#1D1D1D"/>
</svg>
